<svg width="104" height="104" viewBox="0 0 104 104" fill="none" xmlns="http://www.w3.org/2000/svg">
<path d="M52 104C80.7188 104 104 80.7188 104 52C104 23.2812 80.7188 0 52 0C23.2812 0 0 23.2812 0 52C0 80.7188 23.2812 104 52 104Z" fill="#FAFDFF"/>
<path d="M50.9973 14.7865C52.7626 13.8685 54.9234 16.0011 53.9772 17.7664C53.4264 19.2069 51.3645 19.5883 50.3052 18.4867C49.1895 17.4416 49.5567 15.3514 50.9831 14.7865M31.988 16.8343C33.0614 16.3965 34.4171 17.371 34.3042 18.5432C34.4171 19.8142 32.8636 20.7463 31.7762 20.1391C30.3215 19.5741 30.491 17.2298 31.988 16.8343ZM70.8821 20.1814C69.2015 19.9837 68.9473 17.3427 70.5573 16.8061C71.8142 16.1988 72.9581 17.3427 73.1417 18.5291C72.8734 19.5459 72.026 20.4639 70.8821 20.1814ZM36.3096 24.9125C38.1032 23.7827 40.6594 25.4633 40.3911 27.5535C40.2922 29.6578 37.51 30.8723 35.9283 29.4601C34.403 28.3444 34.629 25.7882 36.3096 24.9267M63.6795 26.1271C64.4845 24.0652 67.7186 24.0087 68.6366 26.0141C69.5404 27.5817 68.4247 29.5166 66.8289 30.0391C64.7105 30.4345 62.6909 28.1325 63.6936 26.1271M48.6953 29.9261C48.6811 28.1608 50.2911 26.8332 51.9717 26.7061C53.0874 26.9321 54.302 27.4123 54.7822 28.528C55.6719 30.0815 54.881 32.2281 53.271 32.9343C52.5366 33.3438 51.661 33.1885 50.856 33.1461C49.6274 32.5388 48.5964 31.3666 48.6953 29.912M20.4497 32.4965C22.088 31.4937 24.2911 33.3297 23.6838 35.1092C23.3449 36.6486 21.2689 37.27 20.0967 36.2955C18.8397 35.3775 19.0375 33.1602 20.4639 32.4965M81.107 32.4965C82.491 31.4231 84.793 32.6518 84.6235 34.403C84.7224 35.9989 82.7311 37.2135 81.3612 36.3802C79.8359 35.7023 79.6806 33.358 81.107 32.4823M56.6464 35.6741C58.9342 34.855 61.6599 35.8294 62.9734 37.8772C64.6963 40.377 63.7784 44.1901 61.1092 45.6165C58.3411 47.3112 54.2879 45.8707 53.2569 42.7778C52.0988 40.0098 53.7936 36.5356 56.6464 35.6741ZM43.1874 35.9424C45.7295 34.742 49.1472 35.7447 50.3759 38.3433C51.8164 40.8713 50.7007 44.402 48.1162 45.7013C45.5318 47.17 41.874 46.0543 40.6312 43.3427C39.233 40.7159 40.4758 37.1429 43.1874 35.9424ZM29.7143 40.5464C29.912 38.9082 31.4514 37.849 33.0049 37.736C34.6855 37.9337 36.0271 39.2471 36.2107 40.9419C36.0978 42.6225 34.7985 44.2748 33.019 44.2607C31.0559 44.4302 29.3329 42.4812 29.7143 40.5464ZM69.5122 38.0891C71.5317 36.9169 74.3281 38.6257 74.2292 40.9419C74.3704 43.3992 71.2775 45.1222 69.2721 43.6817C67.1819 42.4813 67.3514 39.1059 69.5122 38.0891ZM37.7077 46.7322C40.0662 46.0826 42.7496 47.1983 43.9076 49.359C45.1787 51.5339 44.6561 54.5703 42.6931 56.1662C40.1792 58.5106 35.5187 57.5644 34.1771 54.3726C32.6377 51.4351 34.5019 47.509 37.7077 46.7322ZM63.2276 46.7322C65.5155 46.0826 68.2129 46.9582 69.4416 49.0483C71.0657 51.4351 70.2889 54.994 67.874 56.5334C65.3319 58.3129 61.4057 57.3808 60.0076 54.5845C58.3128 51.6893 60.0076 47.6078 63.2417 46.7322M22.5681 49.4579C24.6018 48.6953 26.8615 50.9408 26.0282 52.9462C25.5198 54.7822 22.9353 55.4601 21.5937 54.1043C20.0261 52.8332 20.6051 49.9946 22.554 49.4438M77.7034 52.3672C77.6469 50.6866 78.8756 49.1896 80.6127 49.0907C82.0108 49.3167 83.3666 50.4324 83.2536 51.9576C83.3807 53.9631 80.9658 55.3188 79.2569 54.3867C78.4519 53.9772 78.0423 53.158 77.7034 52.3672ZM12.541 50.4324C13.7697 49.8957 15.2808 50.9549 14.9984 52.3248C14.9277 53.8642 12.654 54.4574 11.8207 53.1722C11.0863 52.2824 11.5242 50.8984 12.541 50.4465V50.4324ZM89.7219 50.4041C90.5833 49.7968 91.9674 50.2347 92.3063 51.2374C92.8854 52.3389 91.8261 53.8501 90.5833 53.6523C88.8462 53.8077 88.2813 51.1667 89.7219 50.4041ZM44.3454 57.7903C47.5654 56.9571 51.0255 59.6404 51.0537 62.9592C51.2656 66.3063 47.8479 69.2863 44.5573 68.5095C42.0152 68.0999 40.0098 65.6426 40.0945 63.0722C40.0945 60.6149 41.9446 58.3129 44.3596 57.8044M57.1124 57.8044C60.3748 56.8865 63.9478 59.6263 63.8913 63.0157C64.0608 66.3064 60.7561 69.1733 57.5361 68.5236C54.4997 68.1282 52.2542 64.7952 53.1016 61.8436C53.5252 59.8805 55.1776 58.2846 57.1124 57.8044ZM32.5106 59.8522C34.7702 59.4709 36.8886 61.9848 35.9706 64.1314C35.3069 66.4193 31.9739 67.0407 30.491 65.1765C28.768 63.3829 30.0532 60.0923 32.4964 59.8522M69.9076 59.9511C71.9272 59.1037 74.3987 60.855 74.2433 63.044C74.3281 65.459 71.2634 67.1114 69.3004 65.7132C67.069 64.4563 67.4785 60.7279 69.9076 59.9652M80.3585 70.4584C79.5676 68.9897 81.0081 67.0407 82.6322 67.3091C83.4514 67.3091 84.0163 67.9305 84.5388 68.4812C84.6518 69.3569 84.8213 70.4019 84.101 71.0657C83.1124 72.3085 80.8951 71.9555 80.3585 70.4726M20.4215 67.7327C21.9467 66.7159 24.1499 68.227 23.811 70.0206C23.6274 71.6024 21.636 72.5062 20.3226 71.6024C18.9104 70.7833 18.9668 68.4671 20.4215 67.7327ZM50.6018 71.0375C52.6073 70.1477 55.1493 71.899 54.9658 74.1021C55.107 76.5312 51.9576 78.226 50.0087 76.7572C47.8338 75.5003 48.201 71.8142 50.6159 71.0375M36.6344 74.2998C38.3433 73.4101 40.6312 74.9495 40.4758 76.8561C40.5323 78.4237 38.9929 79.7512 37.4535 79.5253C36.1684 79.497 35.3351 78.3531 34.9256 77.2656C34.9397 76.0793 35.434 74.7518 36.6344 74.2998ZM64.9505 74.3281C66.7018 73.2406 69.1874 74.7941 69.032 76.8419C69.0744 78.9745 66.264 80.3444 64.6257 78.9321C63.044 77.8305 63.2417 75.2037 64.9505 74.3281ZM69.8794 86.5019C69.1026 85.3297 70.0206 83.9033 71.2775 83.635C72.2944 83.8468 73.3677 84.6094 73.1559 85.7816C73.0005 87.3775 70.6703 87.8718 69.8794 86.5019ZM30.7876 85.4709C31.0983 84.5388 31.8468 83.6067 32.9484 83.8468C34.5584 83.9598 35.0244 86.3748 33.6263 87.1233C32.3693 87.9706 30.9006 86.8126 30.7876 85.4709ZM49.6415 86.5443C49.9522 85.1602 51.7316 84.4965 52.918 85.2308C53.6947 85.5698 53.9207 86.4313 54.1184 87.1798C54.0054 87.5611 53.9207 87.9565 53.8218 88.3378C53.3416 88.9169 52.7202 89.4818 51.9152 89.4677C50.4182 89.6371 49.0766 87.9565 49.6415 86.5584" fill="url(#paint0_linear_225_5787)"/>
<defs>
<linearGradient id="paint0_linear_225_5787" x1="103.8" y1="7.34315" x2="0.0225497" y2="108.515" gradientUnits="userSpaceOnUse">
<stop offset="0.197917" stop-color="#082CAD"/>
<stop offset="1" stop-color="#8FA5F4"/>
</linearGradient>
</defs>
</svg>
