<svg width="104" height="104" viewBox="0 0 104 104" fill="none" xmlns="http://www.w3.org/2000/svg">
<path d="M52 0C80.7116 0 104 23.2884 104 52C104 80.7116 80.7116 104 52 104C23.2884 104 0 80.7257 0 52C0 23.2743 23.2884 0 52 0Z" fill="#FAFDFF"/>
<path d="M58.4257 45.0657V37.3264H76.1216V25.5339H27.9488V37.3264H45.6446V45.0516C31.2677 45.7154 20.4496 48.554 20.4496 51.9717C20.4496 55.3895 31.2677 58.2281 45.6446 58.8919V83.6773H58.4399V58.8919C72.7886 58.2281 83.5784 55.3895 83.5784 51.9717C83.5784 48.554 72.7886 45.7154 58.4399 45.0516M58.4399 56.7876C58.0727 56.8017 56.2226 56.9147 52.0987 56.9147C48.794 56.9147 46.4779 56.8158 45.6588 56.7735C32.9624 56.2227 23.4719 54.0054 23.4719 51.3645C23.4719 48.7235 32.9483 46.5062 45.6588 45.9413V54.5844C46.492 54.6409 48.8646 54.7822 52.1552 54.7822C56.0955 54.7822 58.0868 54.6127 58.454 54.5844V45.9413C71.1362 46.5062 80.5985 48.7235 80.5985 51.3645C80.5985 54.0054 71.1362 56.2227 58.454 56.7876" fill="url(#paint0_linear_225_5784)"/>
<defs>
<linearGradient id="paint0_linear_225_5784" x1="92.4081" y1="19.9281" x2="11.8546" y2="98.7716" gradientUnits="userSpaceOnUse">
<stop offset="0.197917" stop-color="#082CAD"/>
<stop offset="1" stop-color="#8FA5F4"/>
</linearGradient>
</defs>
</svg>
