<svg width="104" height="104" viewBox="0 0 104 104" fill="none" xmlns="http://www.w3.org/2000/svg">
<path d="M52 104C80.7188 104 104 80.7188 104 52C104 23.2812 80.7188 0 52 0C23.2812 0 0 23.2812 0 52C0 80.7188 23.2812 104 52 104Z" fill="#FAFDFF"/>
<path d="M51.3794 23.8611H35.223V48.9007H28.5853V55.03H35.223V80.0697H54.0627C54.0627 80.0697 80.5429 82.2869 80.5429 52.4314C80.5429 22.5759 55.2208 23.8611 51.3936 23.8611H51.3794ZM53.6249 69.6753H45.8292V55.03H57.5228V48.9007H45.8292V34.2555H53.2578C56.04 34.2555 70.0215 35.3712 70.0356 52.6433C70.0497 69.9154 55.6163 69.6894 53.6108 69.6894L53.6249 69.6753Z" fill="url(#paint0_linear_225_5769)"/>
<defs>
<linearGradient id="paint0_linear_225_5769" x1="87.8102" y1="18.4293" x2="11.1463" y2="82.2621" gradientUnits="userSpaceOnUse">
<stop offset="0.197917" stop-color="#082CAD"/>
<stop offset="1" stop-color="#8FA5F4"/>
</linearGradient>
</defs>
</svg>
